<?xml version="1.0" encoding="iso-8859-1"?>
<!-- Uploaded to: SVG Repo, www.svgrepo.com, Generator: SVG Repo Mixer Tools -->
<svg height="800px" width="800px" version="1.1" id="Layer_1" xmlns="http://www.w3.org/2000/svg" xmlns:xlink="http://www.w3.org/1999/xlink" 
	 viewBox="0 0 512.001 512.001" xml:space="preserve">
<path style="fill:#FAB352;" d="M256,8.174c-15.071,0-29.72,1.844-43.718,5.326v351.016c13.997,3.482,28.647,5.326,43.718,5.326
	c99.868,0,180.834-80.966,180.834-180.834S355.868,8.174,256,8.174z"/>
<path style="fill:#FCD197;" d="M212.281,13.499c78.748,19.546,137.116,90.711,137.116,175.508S291.029,344.97,212.281,364.516
	c-78.748-19.545-137.116-90.71-137.116-175.507S133.534,33.046,212.281,13.499z"/>
<path style="fill:#68615B;" d="M503.829,282.019c-36.674-43.421-90.71-48.889-134.131-12.215c0,27.651-17.607,50.276-39.127,50.276
	H181.427c-21.519,0-39.127-22.624-39.127-50.276C98.88,233.13,44.844,238.599,8.17,282.019
	c33.917,4.241,57.975,35.173,53.735,69.091c54.813,0,100.995,36.936,115.026,87.274L256,471.148l79.069-32.764
	c14.032-50.338,60.213-87.274,115.026-87.274C445.855,317.193,469.912,286.26,503.829,282.019z"/>
<path style="fill:#A59D8C;" d="M218.852,284.621v105.805c0,20.516,16.631,37.147,37.147,37.147s37.147-16.631,37.147-37.147V284.621
	H218.852z"/>
<g>
	<circle style="fill:#FAB352;" cx="161.77" cy="139.962" r="40.851"/>
	<circle style="fill:#FAB352;" cx="284.04" cy="189.005" r="32.681"/>
</g>
<g>
	<circle style="fill:#FCD197;" cx="341.7" cy="78.409" r="8.17"/>
	<circle style="fill:#FCD197;" cx="368.934" cy="100.2" r="8.17"/>
</g>
<g>
	<path style="fill:#440852;" d="M510.072,276.748c-19.461-23.042-43.672-36.53-70.013-39.007
		c-26.526-2.49-52.679,6.436-75.632,25.821c-1.838,1.552-2.898,3.836-2.898,6.241c0,22.823-14.177,42.105-30.956,42.105h-29.254
		v-49.077c0-4.513-3.657-8.17-8.17-8.17c-4.513,0-8.17,3.657-8.17,8.17v13.617h-57.955v-13.617c0-4.513-3.657-8.17-8.17-8.17
		c-4.513,0-8.17,3.657-8.17,8.17v49.077h-29.254c-16.779,0-30.956-19.282-30.956-42.105c0-2.405-1.061-4.69-2.898-6.241
		c-22.952-19.385-49.107-28.309-75.632-25.821c-26.341,2.476-50.551,15.964-70.013,39.007c-1.934,2.291-2.46,5.454-1.368,8.245
		c1.09,2.792,3.622,4.762,6.596,5.134c14.238,1.78,26.932,8.997,35.742,20.324c8.81,11.326,12.681,25.405,10.9,39.644
		c-0.291,2.326,0.431,4.664,1.982,6.422c1.551,1.756,3.782,2.763,6.125,2.763c49.748,0,93.813,33.43,107.155,81.298
		c0.674,2.419,2.424,4.392,4.743,5.354l74.026,30.674v27.222c0,4.513,3.657,8.17,8.17,8.17c4.513,0,8.17-3.657,8.17-8.17v-27.222
		l74.026-30.674c2.319-0.962,4.068-2.935,4.743-5.354c13.342-47.867,57.407-81.298,107.155-81.298c2.343,0,4.574-1.007,6.125-2.763
		c1.55-1.757,2.272-4.096,1.982-6.422c-1.781-14.238,2.09-28.317,10.9-39.644c8.81-11.327,21.503-18.544,35.742-20.324
		c2.973-0.373,5.506-2.342,6.596-5.134C512.531,282.202,512.005,279.039,510.072,276.748z M284.978,292.791v97.635
		c0,15.979-12.999,28.978-28.978,28.978s-28.977-12.999-28.977-28.978v-97.635H284.978z M456.204,300.421
		c-9.65,12.407-14.757,27.347-14.77,42.815c-52.119,3.561-97.403,39.014-113.092,89.092L256,462.304l-72.342-29.977
		c-15.689-50.078-60.974-85.532-113.092-89.092c-0.013-15.468-5.119-30.408-14.77-42.815c-8.352-10.739-19.383-18.647-31.917-23.056
		c32.295-29.868,74.943-31.607,110.36-3.599c1.655,30.387,22.187,54.486,47.189,54.486h29.255v62.175
		c0,24.988,20.33,45.319,45.319,45.319c24.989,0,45.319-20.33,45.319-45.319V328.25h29.254c25.002,0,45.535-24.099,47.189-54.486
		c35.416-28.006,78.064-26.268,110.36,3.599C475.587,281.773,464.556,289.681,456.204,300.421z"/>
	<path style="fill:#440852;" d="M77.808,221.004c4.473-0.59,7.621-4.696,7.031-9.169c-0.998-7.558-1.503-15.239-1.503-22.828
		C83.336,93.8,160.793,16.344,256,16.344S428.664,93.8,428.664,189.007c0,7.59-0.505,15.271-1.503,22.828
		c-0.59,4.473,2.558,8.579,7.031,9.169c0.363,0.048,0.723,0.071,1.08,0.071c4.036,0,7.547-2.991,8.09-7.103
		c1.09-8.264,1.644-16.664,1.644-24.966C445.004,84.789,360.217,0.002,256,0.002S66.995,84.79,66.995,189.007
		c0,8.301,0.553,16.7,1.644,24.966C69.23,218.447,73.34,221.598,77.808,221.004z"/>
	<path style="fill:#440852;" d="M161.77,107.278c4.104,0,8.118,0.759,11.934,2.257c4.197,1.65,8.941-0.419,10.591-4.62
		c1.649-4.199-0.419-8.941-4.62-10.591c-5.726-2.247-11.75-3.387-17.905-3.387c-27.03,0-49.021,21.991-49.021,49.021
		s21.991,49.021,49.021,49.021s49.021-21.991,49.021-49.021c0-6.157-1.141-12.182-3.389-17.907
		c-1.65-4.199-6.391-6.267-10.592-4.617s-6.267,6.391-4.617,10.592c1.498,3.814,2.257,7.828,2.257,11.932
		c0,18.02-14.661,32.681-32.681,32.681s-32.681-14.661-32.681-32.681S143.75,107.278,161.77,107.278z"/>
	<path style="fill:#440852;" d="M284.037,164.497c2.142,0,4.277,0.281,6.347,0.836c4.36,1.166,8.838-1.421,10.006-5.78
		c1.166-4.36-1.422-8.838-5.78-10.006c-3.448-0.923-7.006-1.39-10.572-1.39c-22.526,0-40.851,18.325-40.851,40.851
		s18.325,40.851,40.851,40.851c22.526,0,40.851-18.325,40.851-40.851c0-3.564-0.467-7.121-1.388-10.569
		c-1.166-4.36-5.643-6.946-10.004-5.785c-4.36,1.165-6.949,5.644-5.785,10.004c0.555,2.072,0.836,4.208,0.836,6.35
		c0,13.515-10.996,24.511-24.511,24.511c-13.515,0-24.511-10.996-24.511-24.511C259.526,175.493,270.521,164.497,284.037,164.497z"
		/>
</g>
</svg>